<?xml version="1.0" standalone="no"?>
<!DOCTYPE svg PUBLIC "-//W3C//DTD SVG 20010904//EN"
 "http://www.w3.org/TR/2001/REC-SVG-20010904/DTD/svg10.dtd">
<svg version="1.0" xmlns="http://www.w3.org/2000/svg"
 width="1920.000000pt" height="1260.000000pt" viewBox="0 0 1920.000000 1260.000000"
 preserveAspectRatio="xMidYMid meet">

<g transform="translate(0.000000,1260.000000) scale(0.100000,-0.100000)"
fill="#000000" stroke="none">
<path d="M0 8571 c0 -2259 4 -4032 9 -4035 4 -3 39 1 77 9 49 10 136 15 299
15 168 0 271 5 380 19 83 11 220 25 305 31 198 15 716 15 840 0 52 -6 266 -15
475 -20 209 -4 509 -15 667 -24 l286 -17 541 96 540 95 902 -80 902 -81 301
60 c277 56 320 62 546 76 135 8 300 20 367 26 l122 10 250 -141 c213 -119 257
-140 293 -140 63 0 103 13 309 101 257 109 291 116 533 101 200 -12 368 -32
696 -83 107 -16 271 -39 363 -49 172 -20 497 -38 497 -27 0 3 -34 240 -75 527
l-76 523 16 430 c9 237 17 433 19 434 4 4 5669 -46 5673 -51 2 -2 32 -449 33
-488 0 -4 29 -28 64 -53 l64 -45 271 104 270 105 303 -103 303 -103 137 -264
c128 -245 138 -268 138 -319 0 -125 -103 -425 -184 -535 -13 -16 -26 -39 -30
-49 -7 -19 6 -19 661 -13 367 4 768 7 891 7 l222 0 0 3990 0 3990 -9600 0
-9600 0 0 -4029z"/>
<path d="M16621 5655 c-90 -24 -168 -48 -172 -52 -4 -4 -48 -83 -98 -176 -64
-116 -96 -188 -107 -235 -8 -37 -17 -75 -20 -84 -3 -10 -38 -45 -79 -78 -69
-56 -75 -64 -98 -135 -24 -70 -24 -74 -6 -65 18 10 17 6 -7 -57 -34 -88 -54
-145 -54 -149 0 -2 251 -3 557 -2 l557 3 58 70 c74 87 109 148 144 250 38 110
41 266 6 367 -47 136 -139 243 -269 311 -64 34 -200 78 -233 76 -8 0 -89 -20
-179 -44z"/>
</g>
</svg>
