<?xml version="1.0" standalone="no"?>
<!DOCTYPE svg PUBLIC "-//W3C//DTD SVG 20010904//EN"
 "http://www.w3.org/TR/2001/REC-SVG-20010904/DTD/svg10.dtd">
<svg version="1.0" xmlns="http://www.w3.org/2000/svg"
 width="1280.000000pt" height="1199.000000pt" viewBox="0 0 1280.000000 1199.000000"
 preserveAspectRatio="xMidYMid meet">
<metadata>
Created by potrace 1.15, written by Peter Selinger 2001-2017
</metadata>
<g transform="translate(0.000000,1199.000000) scale(0.100000,-0.100000)"
fill="#000000" stroke="none">
<path d="M5840 11981 c-72 -23 -158 -99 -195 -172 -10 -19 -43 -61 -73 -94
-59 -64 -144 -189 -185 -271 -38 -76 -93 -239 -117 -350 -27 -127 -44 -250
-70 -503 -11 -111 -22 -206 -24 -210 -13 -21 -25 -287 -17 -386 5 -60 8 -111
6 -113 -3 -3 -153 222 -367 551 -215 330 -366 495 -618 673 -186 132 -246 169
-382 234 -245 116 -430 120 -534 8 -65 -69 -85 -138 -88 -308 -2 -84 -10 -156
-24 -220 -49 -216 -14 -486 100 -778 22 -59 77 -186 121 -282 44 -96 106 -236
139 -310 58 -134 105 -219 181 -335 47 -71 50 -74 -141 135 -319 350 -486 491
-703 597 -111 54 -184 78 -302 98 -53 9 -172 34 -265 56 -302 72 -431 74 -522
8 -63 -46 -90 -112 -90 -221 0 -86 26 -267 56 -382 37 -146 145 -374 248 -527
19 -29 34 -54 33 -55 -1 -1 -31 5 -67 13 -52 12 -152 16 -505 17 -430 1 -442
2 -515 25 -61 19 -90 22 -157 18 -112 -7 -176 -41 -217 -118 -26 -51 -28 -60
-23 -144 5 -97 32 -184 93 -306 54 -109 168 -270 246 -350 40 -41 95 -101 122
-134 190 -228 410 -377 975 -659 95 -48 172 -88 170 -90 -2 -1 -107 1 -234 5
-126 4 -419 9 -650 10 -357 3 -434 1 -515 -14 -401 -70 -623 -234 -621 -460 0
-75 18 -151 46 -193 9 -14 87 -78 175 -144 267 -199 510 -352 730 -459 94 -46
151 -71 410 -187 144 -64 386 -122 605 -144 176 -18 176 -17 20 -65 -204 -62
-403 -132 -730 -257 -255 -98 -308 -122 -440 -201 -189 -113 -362 -228 -489
-326 -189 -144 -436 -401 -436 -452 0 -32 106 -135 204 -200 145 -96 346 -164
601 -204 123 -20 541 -30 675 -17 52 5 96 8 98 6 2 -1 -18 -29 -44 -61 -77
-94 -163 -230 -223 -353 -31 -63 -78 -143 -103 -178 -88 -118 -98 -209 -32
-282 45 -50 116 -77 239 -90 130 -15 585 3 770 30 289 43 618 133 983 269 l84
31 -20 -32 c-96 -158 -131 -219 -182 -323 -103 -211 -200 -469 -250 -666 -11
-43 -34 -113 -52 -156 -79 -198 -113 -373 -106 -546 6 -135 31 -209 91 -275
64 -69 125 -95 234 -100 142 -7 169 0 265 69 45 33 171 113 278 176 298 177
397 240 495 313 200 151 498 498 735 855 70 106 70 106 54 38 -43 -182 -82
-501 -110 -900 -16 -240 -16 -243 6 -390 82 -557 162 -783 318 -898 108 -80
247 -87 393 -18 246 115 459 329 658 661 128 212 413 817 492 1042 34 95 45
118 47 95 28 -308 175 -901 255 -1026 50 -79 79 -138 163 -341 94 -226 142
-322 207 -416 98 -142 216 -225 365 -257 42 -9 113 -28 157 -42 177 -55 339 0
456 155 119 158 197 411 202 658 1 57 3 104 5 104 2 0 34 -13 70 -29 115 -50
186 -65 317 -65 71 0 135 5 156 12 69 24 165 183 195 323 13 61 15 120 11 339
-3 146 -3 304 0 352 l6 87 77 -64 c133 -108 268 -172 473 -225 142 -37 240
-53 502 -85 291 -35 273 -36 335 32 105 115 148 224 157 399 15 296 -110 638
-364 993 -17 23 -16 23 2 18 11 -4 79 -14 150 -23 97 -13 210 -18 450 -18 281
-1 328 1 384 17 283 81 387 297 295 615 -33 114 -100 254 -176 364 -62 91
-199 240 -268 290 l-34 25 114 7 c466 28 645 70 1002 233 67 31 134 92 154
139 22 52 18 141 -10 199 -78 168 -370 390 -641 488 -39 14 -111 50 -160 80
-274 166 -639 315 -1020 416 -97 26 -138 40 -115 40 325 8 692 70 905 154 497
195 711 309 955 506 167 135 333 314 433 466 37 57 39 63 33 122 -11 124 -82
211 -210 257 -105 38 -155 45 -441 61 -277 15 -345 24 -440 56 -46 16 -73 19
-117 14 -32 -3 -58 -4 -58 -2 0 2 26 21 58 42 84 56 346 256 512 392 l145 118
27 80 c93 279 101 314 102 441 1 117 0 122 -29 170 -56 89 -139 128 -312 145
-405 40 -732 -43 -1288 -326 -110 -56 -213 -105 -229 -109 l-28 -7 48 68 c26
37 82 113 123 168 41 55 97 129 124 165 111 148 219 371 346 715 45 121 108
288 141 371 33 83 60 160 60 172 0 32 -32 48 -160 81 -296 76 -577 65 -879
-35 -134 -45 -370 -160 -531 -260 -69 -42 -161 -99 -205 -127 -67 -41 -148
-100 -290 -209 -19 -15 -14 2 30 105 65 152 112 304 164 534 22 98 50 214 61
258 56 217 26 506 -79 762 -47 113 -92 190 -148 250 -37 41 -45 45 -75 39
-101 -18 -180 -17 -338 4 -134 17 -177 19 -229 11 -111 -18 -198 -74 -264
-170 -17 -25 -94 -106 -170 -180 -159 -154 -256 -264 -386 -440 -179 -241
-453 -680 -533 -856 -165 -361 -315 -713 -407 -955 l-66 -175 -1 170 c0 103
-7 211 -17 275 -9 58 -21 188 -27 290 -49 820 -129 1340 -272 1784 -123 385
-371 677 -584 692 -33 2 -70 0 -84 -5z"/>
</g>
</svg>
